<svg width="60" height="60" viewBox="0 0 60 60" fill="none" xmlns="http://www.w3.org/2000/svg">
<path d="M55.8374 51.5742C57.7166 49.0554 59.0061 46.1466 59.6109 43.0628C60.2157 39.9789 60.1203 36.7986 59.3317 33.7565C58.5431 30.7145 57.0815 27.8883 55.0547 25.4866C53.0279 23.0849 50.4877 21.169 47.6215 19.8802C46.9972 16.2883 45.5624 12.886 43.4261 9.9317C41.2898 6.97744 38.5083 4.54899 35.2928 2.83086C32.0773 1.11272 28.5124 0.150123 24.8692 0.0161932C21.2259 -0.117736 17.6 0.58053 14.267 2.05793C10.9341 3.53534 7.98168 5.75301 5.63424 8.54245C3.2868 11.3319 1.60606 14.6197 0.719715 18.156C-0.166629 21.6924 -0.23525 25.3843 0.519065 28.9511C1.27338 32.518 2.83078 35.866 5.07294 38.7407L0.90504 42.8786C0.488976 43.3003 0.207129 43.8357 0.0950633 44.4174C-0.0170027 44.9991 0.0457338 45.6009 0.275357 46.147C0.500304 46.6945 0.882305 47.1633 1.37322 47.4941C1.86413 47.825 2.44199 48.0031 3.03397 48.006H20.0954C21.7945 51.588 24.4733 54.6156 27.8217 56.7382C31.1702 58.8609 35.0513 59.9918 39.0159 60H57.0068C57.5988 59.997 58.1766 59.8189 58.6676 59.4881C59.1585 59.1573 59.5405 58.6885 59.7654 58.1409C59.995 57.5949 60.0578 56.993 59.9457 56.4114C59.8336 55.8297 59.5518 55.2942 59.1357 54.8726L55.8374 51.5742ZM18.0264 39.0106C18.0305 40.0147 18.1107 41.017 18.2663 42.0091H10.2603L11.3098 40.9896C11.5908 40.7108 11.8139 40.3792 11.9661 40.0138C12.1184 39.6484 12.1968 39.2565 12.1968 38.8606C12.1968 38.4648 12.1184 38.0729 11.9661 37.7075C11.8139 37.3421 11.5908 37.0105 11.3098 36.7317C9.62933 35.0697 8.29707 33.0893 7.39094 30.9063C6.4848 28.7233 6.02298 26.3816 6.03246 24.0181C6.03246 19.2466 7.92793 14.6705 11.3019 11.2966C14.6758 7.92263 19.2519 6.02716 24.0234 6.02716C27.7466 6.00478 31.3832 7.14975 34.422 9.3011C37.4608 11.4525 39.7489 14.502 40.9649 18.0211C40.3052 18.0211 39.6755 18.0211 39.0159 18.0211C33.4491 18.0211 28.1104 20.2325 24.1741 24.1688C20.2378 28.1051 18.0264 33.4438 18.0264 39.0106ZM49.6305 54.003L49.7804 54.1529H39.0159C35.5476 54.1467 32.1888 52.9383 29.5116 50.7335C26.8344 48.5286 25.0044 45.4638 24.3334 42.0611C23.6624 38.6583 24.1919 35.1282 25.8317 32.0721C27.4715 29.016 30.1201 26.6229 33.3264 25.3006C36.5327 23.9782 40.0982 23.8084 43.4156 24.82C46.7331 25.8316 49.5972 27.9621 51.52 30.8485C53.4428 33.7349 54.3055 37.1987 53.9609 40.6498C53.6164 44.1009 52.086 47.3258 49.6305 49.7751C49.0656 50.3288 48.7422 51.0832 48.731 51.8741C48.7326 52.2708 48.813 52.6633 48.9674 53.0287C49.1218 53.3941 49.3472 53.7253 49.6305 54.003Z" fill="#3A4D39"/>
</svg>
