<svg width="17" height="17" viewBox="0 0 17 17" fill="none" xmlns="http://www.w3.org/2000/svg">
<path d="M15.1469 8.032L8.45856 14.7203C7.63919 15.5397 6.52789 16 5.36912 16C4.21036 16 3.09906 15.5397 2.27969 14.7203C1.46032 13.9009 1 12.7896 1 11.6309C1 10.4721 1.46032 9.36081 2.27969 8.54144L8.96801 1.85312C9.51425 1.30688 10.2551 1 11.0276 1C11.8001 1 12.541 1.30688 13.0873 1.85312C13.6335 2.39937 13.9404 3.14024 13.9404 3.91275C13.9404 4.68526 13.6335 5.42613 13.0873 5.97237L6.39166 12.6607C6.11853 12.9338 5.7481 13.0873 5.36184 13.0873C4.97559 13.0873 4.60516 12.9338 4.33203 12.6607C4.05891 12.3876 3.90547 12.0171 3.90547 11.6309C3.90547 11.2446 4.05891 10.8742 4.33203 10.6011L10.5109 4.42947" stroke="#4F6F52" stroke-width="2" stroke-linecap="round" stroke-linejoin="round"/>
</svg>
