<svg width="8" height="10" viewBox="0 0 8 10" fill="none" xmlns="http://www.w3.org/2000/svg">
<path d="M6.65979 4.32154H6.03348V2.98541C6.03348 1.69104 4.96875 0.62631 3.67438 0.62631C2.38 0.62631 1.31527 1.69104 1.31527 2.98541V4.32154H0.688965V2.98541C0.688965 1.33613 2.02509 0 3.67438 0C5.32366 0 6.65979 1.33613 6.65979 2.98541V4.32154Z" fill="#3A4D39"/>
<path d="M6.34661 10.0002H1.0021C0.459294 10.0002 0 9.54089 0 8.99809V4.98971C0 4.4469 0.459294 3.98761 1.0021 3.98761H6.34661C6.88941 3.98761 7.3487 4.4469 7.3487 4.98971V8.99809C7.3487 9.56177 6.88941 10.0002 6.34661 10.0002ZM1.0021 4.65567C0.814203 4.65567 0.668064 4.80181 0.668064 4.98971V8.99809C0.668064 9.18598 0.814203 9.33212 1.0021 9.33212H6.34661C6.5345 9.33212 6.68064 9.18598 6.68064 8.99809V4.98971C6.68064 4.80181 6.5345 4.65567 6.34661 4.65567H1.0021Z" fill="#3A4D39"/>
<path d="M4.34223 5.99161C4.34223 6.3674 4.04995 6.65968 3.67417 6.65968C3.29838 6.65968 3.0061 6.3674 3.0061 5.99161C3.0061 5.61583 3.29838 5.32355 3.67417 5.32355C4.04995 5.32355 4.34223 5.6367 4.34223 5.99161Z" fill="#3A4D39"/>
<path d="M3.8414 5.99152H3.50737L3.17334 7.99571H4.17544L3.8414 5.99152Z" fill="#3A4D39"/>
</svg>
