<svg width="8" height="10" viewBox="0 0 8 10" fill="none" xmlns="http://www.w3.org/2000/svg">
<path d="M1.34436 4.32773H0.714111V2.98319C0.714111 1.34454 2.05865 0 3.6973 0C5.20991 0 6.47041 1.11345 6.65949 2.60504L6.05025 2.68908C5.90319 1.51261 4.89478 0.630252 3.6973 0.630252C2.39478 0.630252 1.34436 1.68067 1.34436 2.98319V4.32773Z" fill="#3A4D39"/>
<path d="M6.36555 10.0001H1.0084C0.462185 10.0001 0 9.55894 0 8.99171V4.97911C0 4.43289 0.441177 3.9707 1.0084 3.9707H6.36555C6.91177 3.9707 7.37395 4.41188 7.37395 4.97911V8.99171C7.37395 9.55894 6.93277 10.0001 6.36555 10.0001ZM1.02941 4.66398C0.840336 4.66398 0.693278 4.81104 0.693278 5.00011V9.01272C0.693278 9.2018 0.840336 9.34885 1.02941 9.34885H6.38655C6.57563 9.34885 6.72269 9.2018 6.72269 9.01272V5.00011C6.72269 4.81104 6.57563 4.66398 6.38655 4.66398H1.02941Z" fill="#3A4D39"/>
<path d="M4.36968 5.98733C4.36968 6.36548 4.07557 6.6596 3.69742 6.6596C3.31926 6.6596 3.02515 6.36548 3.02515 5.98733C3.02515 5.60918 3.31926 5.31506 3.69742 5.31506C4.07557 5.31506 4.36968 5.63019 4.36968 5.98733Z" fill="#3A4D39"/>
<path d="M3.86538 5.98767H3.52925L3.19312 8.00448H4.20152L3.86538 5.98767Z" fill="#3A4D39"/>
</svg>
