<svg width="11" height="10" viewBox="0 0 11 10" fill="none" xmlns="http://www.w3.org/2000/svg">
<path d="M5.23077 5.61539C6.78462 5.61539 8.03077 4.35385 8.03077 2.81538C8.03077 1.27692 6.78462 0 5.23077 0C3.67692 0 2.43077 1.26154 2.43077 2.8C2.43077 4.33846 3.67692 5.61539 5.23077 5.61539ZM5.23077 0.738461C6.36923 0.738461 7.29231 1.66154 7.29231 2.8C7.29231 3.93846 6.36923 4.86154 5.23077 4.86154C4.09231 4.86154 3.16923 3.95385 3.16923 2.81538C3.16923 1.67692 4.09231 0.738461 5.23077 0.738461ZM0.369231 10H10.1231C10.3231 10 10.4923 9.83077 10.4923 9.63077C10.4923 7.69231 8.90769 6.10769 6.96923 6.10769H3.52308C1.58462 6.10769 0 7.69231 0 9.63077C0 9.83077 0.169231 10 0.369231 10ZM3.52308 6.84615H6.96923C8.38462 6.84615 9.53846 7.89231 9.72308 9.26154H0.769231C0.953846 7.89231 2.10769 6.84615 3.52308 6.84615Z" fill="#3A4D39"/>
</svg>
